<mxfile host="app.diagrams.net" agent="Mozilla/5.0 (Windows NT 10.0; Win64; x64) AppleWebKit/537.36 (KHTML, like Gecko) Chrome/135.0.0.0 Safari/537.36" version="26.2.12">
  <diagram name="第 1 页" id="fvYCnlfNF_KITQgDBsvq">
    <mxGraphModel dx="463" dy="540" grid="0" gridSize="10" guides="1" tooltips="1" connect="1" arrows="1" fold="1" page="1" pageScale="1" pageWidth="850" pageHeight="1100" math="0" shadow="0">
      <root>
        <mxCell id="0" />
        <mxCell id="1" parent="0" />
        <mxCell id="T8dOOQ4WASQxtWzJ8wLk-1" value="应用1" style="rounded=0;whiteSpace=wrap;html=1;dashed=1;dashPattern=12 12;" vertex="1" parent="1">
          <mxGeometry x="30" y="580" width="100" height="50" as="geometry" />
        </mxCell>
        <mxCell id="T8dOOQ4WASQxtWzJ8wLk-3" value="应用2" style="rounded=0;whiteSpace=wrap;html=1;dashed=1;dashPattern=12 12;" vertex="1" parent="1">
          <mxGeometry x="30" y="650" width="100" height="50" as="geometry" />
        </mxCell>
        <mxCell id="T8dOOQ4WASQxtWzJ8wLk-10" value="意图请求" style="text;html=1;align=center;verticalAlign=middle;whiteSpace=wrap;rounded=0;dashed=1;dashPattern=12 12;" vertex="1" parent="1">
          <mxGeometry x="150" y="580" width="60" height="30" as="geometry" />
        </mxCell>
        <mxCell id="T8dOOQ4WASQxtWzJ8wLk-12" value="意图请求" style="text;html=1;align=center;verticalAlign=middle;whiteSpace=wrap;rounded=0;dashed=1;dashPattern=12 12;" vertex="1" parent="1">
          <mxGeometry x="150" y="650" width="60" height="30" as="geometry" />
        </mxCell>
        <mxCell id="T8dOOQ4WASQxtWzJ8wLk-40" value="" style="endArrow=none;html=1;rounded=0;exitX=1;exitY=0.5;exitDx=0;exitDy=0;entryX=0;entryY=0.824;entryDx=0;entryDy=0;entryPerimeter=0;dashed=1;dashPattern=12 12;" edge="1" parent="1">
          <mxGeometry width="50" height="50" relative="1" as="geometry">
            <mxPoint x="140" y="610" as="sourcePoint" />
            <mxPoint x="220" y="610" as="targetPoint" />
          </mxGeometry>
        </mxCell>
        <mxCell id="T8dOOQ4WASQxtWzJ8wLk-41" value="" style="endArrow=none;html=1;rounded=0;dashed=1;dashPattern=12 12;exitX=0.5;exitY=0;exitDx=0;exitDy=0;entryX=0.131;entryY=1.02;entryDx=0;entryDy=0;entryPerimeter=0;" edge="1" parent="1" source="T8dOOQ4WASQxtWzJ8wLk-56" target="T8dOOQ4WASQxtWzJ8wLk-26">
          <mxGeometry width="50" height="50" relative="1" as="geometry">
            <mxPoint x="280" y="540" as="sourcePoint" />
            <mxPoint x="280" y="470" as="targetPoint" />
          </mxGeometry>
        </mxCell>
        <mxCell id="T8dOOQ4WASQxtWzJ8wLk-42" value="标准化服务请求" style="text;html=1;align=center;verticalAlign=middle;whiteSpace=wrap;rounded=0;dashed=1;dashPattern=12 12;" vertex="1" parent="1">
          <mxGeometry x="190" y="530" width="90" height="30" as="geometry" />
        </mxCell>
        <mxCell id="T8dOOQ4WASQxtWzJ8wLk-44" value="" style="endArrow=none;html=1;rounded=0;dashed=1;dashPattern=12 12;exitX=0.597;exitY=-0.008;exitDx=0;exitDy=0;exitPerimeter=0;entryX=1;entryY=0;entryDx=0;entryDy=0;" edge="1" parent="1" target="T8dOOQ4WASQxtWzJ8wLk-69">
          <mxGeometry width="50" height="50" relative="1" as="geometry">
            <mxPoint x="549.7" y="579.04" as="sourcePoint" />
            <mxPoint x="549.71" y="470" as="targetPoint" />
          </mxGeometry>
        </mxCell>
        <mxCell id="T8dOOQ4WASQxtWzJ8wLk-60" value="" style="group" vertex="1" connectable="0" parent="1">
          <mxGeometry x="230" y="740" width="370" height="90" as="geometry" />
        </mxCell>
        <mxCell id="T8dOOQ4WASQxtWzJ8wLk-50" value="" style="rounded=0;whiteSpace=wrap;html=1;dashed=1;dashPattern=12 12;" vertex="1" parent="T8dOOQ4WASQxtWzJ8wLk-60">
          <mxGeometry width="370" height="90" as="geometry" />
        </mxCell>
        <mxCell id="T8dOOQ4WASQxtWzJ8wLk-51" value="资源池化网络域" style="text;html=1;align=center;verticalAlign=middle;whiteSpace=wrap;rounded=0;dashed=1;dashPattern=12 12;" vertex="1" parent="T8dOOQ4WASQxtWzJ8wLk-60">
          <mxGeometry x="135.5" y="3" width="89" height="29" as="geometry" />
        </mxCell>
        <mxCell id="T8dOOQ4WASQxtWzJ8wLk-53" value="边缘资源池" style="rounded=0;whiteSpace=wrap;html=1;dashed=1;dashPattern=12 12;" vertex="1" parent="T8dOOQ4WASQxtWzJ8wLk-60">
          <mxGeometry x="20" y="33.75" width="80" height="45" as="geometry" />
        </mxCell>
        <mxCell id="T8dOOQ4WASQxtWzJ8wLk-54" value="中心资源池" style="rounded=0;whiteSpace=wrap;html=1;dashed=1;dashPattern=12 12;" vertex="1" parent="T8dOOQ4WASQxtWzJ8wLk-60">
          <mxGeometry x="144.5" y="33.75" width="80" height="45" as="geometry" />
        </mxCell>
        <mxCell id="T8dOOQ4WASQxtWzJ8wLk-108" value="云资源池" style="rounded=0;whiteSpace=wrap;html=1;dashed=1;dashPattern=12 12;" vertex="1" parent="T8dOOQ4WASQxtWzJ8wLk-60">
          <mxGeometry x="274" y="33.75" width="80" height="45" as="geometry" />
        </mxCell>
        <mxCell id="T8dOOQ4WASQxtWzJ8wLk-61" value="" style="endArrow=none;html=1;rounded=0;exitX=1;exitY=0.5;exitDx=0;exitDy=0;entryX=-0.007;entryY=0.794;entryDx=0;entryDy=0;entryPerimeter=0;dashed=1;dashPattern=12 12;" edge="1" parent="1" source="T8dOOQ4WASQxtWzJ8wLk-3" target="T8dOOQ4WASQxtWzJ8wLk-28">
          <mxGeometry width="50" height="50" relative="1" as="geometry">
            <mxPoint x="130" y="674.5" as="sourcePoint" />
            <mxPoint x="210" y="674.5799999999999" as="targetPoint" />
          </mxGeometry>
        </mxCell>
        <mxCell id="T8dOOQ4WASQxtWzJ8wLk-62" value="" style="group" vertex="1" connectable="0" parent="1">
          <mxGeometry x="230" y="420" width="386" height="80" as="geometry" />
        </mxCell>
        <mxCell id="T8dOOQ4WASQxtWzJ8wLk-26" value="" style="rounded=0;whiteSpace=wrap;html=1;dashed=1;dashPattern=12 12;" vertex="1" parent="T8dOOQ4WASQxtWzJ8wLk-62">
          <mxGeometry y="-49" width="376" height="129" as="geometry" />
        </mxCell>
        <mxCell id="T8dOOQ4WASQxtWzJ8wLk-47" value="模态匹配" style="rounded=0;whiteSpace=wrap;html=1;dashed=1;dashPattern=12 12;" vertex="1" parent="T8dOOQ4WASQxtWzJ8wLk-62">
          <mxGeometry x="13" y="-19" width="80" height="40" as="geometry" />
        </mxCell>
        <mxCell id="T8dOOQ4WASQxtWzJ8wLk-49" value="资源绑定选择" style="rounded=0;whiteSpace=wrap;html=1;dashed=1;dashPattern=12 12;" vertex="1" parent="T8dOOQ4WASQxtWzJ8wLk-62">
          <mxGeometry x="278" y="-19" width="80" height="40" as="geometry" />
        </mxCell>
        <mxCell id="T8dOOQ4WASQxtWzJ8wLk-105" value="资源负载感知" style="rounded=0;whiteSpace=wrap;html=1;dashed=1;dashPattern=12 12;" vertex="1" parent="T8dOOQ4WASQxtWzJ8wLk-62">
          <mxGeometry x="13" y="33" width="80" height="40" as="geometry" />
        </mxCell>
        <mxCell id="T8dOOQ4WASQxtWzJ8wLk-106" value="流表生成" style="rounded=0;whiteSpace=wrap;html=1;dashed=1;dashPattern=12 12;" vertex="1" parent="T8dOOQ4WASQxtWzJ8wLk-62">
          <mxGeometry x="148" y="33" width="80" height="40" as="geometry" />
        </mxCell>
        <mxCell id="T8dOOQ4WASQxtWzJ8wLk-107" value="故障检测" style="rounded=0;whiteSpace=wrap;html=1;dashed=1;dashPattern=12 12;" vertex="1" parent="T8dOOQ4WASQxtWzJ8wLk-62">
          <mxGeometry x="278" y="33" width="80" height="40" as="geometry" />
        </mxCell>
        <mxCell id="T8dOOQ4WASQxtWzJ8wLk-64" value="" style="group" vertex="1" connectable="0" parent="1">
          <mxGeometry x="230" y="580" width="100" height="120" as="geometry" />
        </mxCell>
        <mxCell id="T8dOOQ4WASQxtWzJ8wLk-28" value="" style="rounded=0;whiteSpace=wrap;html=1;dashed=1;dashPattern=12 12;" vertex="1" parent="T8dOOQ4WASQxtWzJ8wLk-64">
          <mxGeometry width="100" height="120" as="geometry" />
        </mxCell>
        <mxCell id="T8dOOQ4WASQxtWzJ8wLk-56" value="边缘网关" style="text;html=1;align=center;verticalAlign=middle;whiteSpace=wrap;rounded=0;" vertex="1" parent="T8dOOQ4WASQxtWzJ8wLk-64">
          <mxGeometry x="20" width="60" height="30" as="geometry" />
        </mxCell>
        <mxCell id="T8dOOQ4WASQxtWzJ8wLk-57" value="意图识别" style="rounded=0;whiteSpace=wrap;html=1;dashed=1;dashPattern=12 12;" vertex="1" parent="T8dOOQ4WASQxtWzJ8wLk-64">
          <mxGeometry x="7.5" y="40" width="85" height="30" as="geometry" />
        </mxCell>
        <mxCell id="T8dOOQ4WASQxtWzJ8wLk-58" value="业务特征提取" style="rounded=0;whiteSpace=wrap;html=1;dashed=1;dashPattern=12 12;" vertex="1" parent="T8dOOQ4WASQxtWzJ8wLk-64">
          <mxGeometry x="7.5" y="80" width="85" height="30" as="geometry" />
        </mxCell>
        <mxCell id="T8dOOQ4WASQxtWzJ8wLk-66" value="算力路由器" style="rounded=0;whiteSpace=wrap;html=1;dashed=1;dashPattern=12 12;" vertex="1" parent="1">
          <mxGeometry x="360" y="650" width="100" height="50" as="geometry" />
        </mxCell>
        <mxCell id="T8dOOQ4WASQxtWzJ8wLk-72" value="" style="group" vertex="1" connectable="0" parent="1">
          <mxGeometry x="490" y="500" width="77.5" height="30" as="geometry" />
        </mxCell>
        <mxCell id="T8dOOQ4WASQxtWzJ8wLk-69" value="SCI" style="text;html=1;align=center;verticalAlign=middle;whiteSpace=wrap;rounded=0;" vertex="1" parent="T8dOOQ4WASQxtWzJ8wLk-72">
          <mxGeometry width="60" height="30" as="geometry" />
        </mxCell>
        <mxCell id="T8dOOQ4WASQxtWzJ8wLk-70" value="" style="endArrow=none;dashed=1;html=1;strokeWidth=2;rounded=0;" edge="1" parent="T8dOOQ4WASQxtWzJ8wLk-72">
          <mxGeometry width="50" height="50" relative="1" as="geometry">
            <mxPoint x="42.5" y="14.860000000000014" as="sourcePoint" />
            <mxPoint x="77.5" y="14.860000000000014" as="targetPoint" />
          </mxGeometry>
        </mxCell>
        <mxCell id="T8dOOQ4WASQxtWzJ8wLk-73" value="" style="group" vertex="1" connectable="0" parent="1">
          <mxGeometry x="360" y="500" width="77.5" height="30" as="geometry" />
        </mxCell>
        <mxCell id="T8dOOQ4WASQxtWzJ8wLk-74" value="SCI" style="text;html=1;align=center;verticalAlign=middle;whiteSpace=wrap;rounded=0;" vertex="1" parent="T8dOOQ4WASQxtWzJ8wLk-73">
          <mxGeometry width="60" height="30" as="geometry" />
        </mxCell>
        <mxCell id="T8dOOQ4WASQxtWzJ8wLk-75" value="" style="endArrow=none;dashed=1;html=1;strokeWidth=2;rounded=0;" edge="1" parent="T8dOOQ4WASQxtWzJ8wLk-73">
          <mxGeometry width="50" height="50" relative="1" as="geometry">
            <mxPoint x="42.5" y="14.860000000000014" as="sourcePoint" />
            <mxPoint x="77.5" y="14.860000000000014" as="targetPoint" />
          </mxGeometry>
        </mxCell>
        <mxCell id="T8dOOQ4WASQxtWzJ8wLk-76" value="" style="group" vertex="1" connectable="0" parent="1">
          <mxGeometry x="230" y="500" width="77.5" height="30" as="geometry" />
        </mxCell>
        <mxCell id="T8dOOQ4WASQxtWzJ8wLk-77" value="SCI" style="text;html=1;align=center;verticalAlign=middle;whiteSpace=wrap;rounded=0;" vertex="1" parent="T8dOOQ4WASQxtWzJ8wLk-76">
          <mxGeometry width="60" height="30" as="geometry" />
        </mxCell>
        <mxCell id="T8dOOQ4WASQxtWzJ8wLk-78" value="" style="endArrow=none;dashed=1;html=1;strokeWidth=2;rounded=0;" edge="1" parent="T8dOOQ4WASQxtWzJ8wLk-76">
          <mxGeometry width="50" height="50" relative="1" as="geometry">
            <mxPoint x="42.5" y="14.860000000000014" as="sourcePoint" />
            <mxPoint x="77.5" y="14.860000000000014" as="targetPoint" />
          </mxGeometry>
        </mxCell>
        <mxCell id="T8dOOQ4WASQxtWzJ8wLk-82" value="" style="endArrow=none;html=1;rounded=0;exitX=1.001;exitY=0.804;exitDx=0;exitDy=0;entryX=-0.005;entryY=0.527;entryDx=0;entryDy=0;entryPerimeter=0;dashed=1;dashPattern=12 12;exitPerimeter=0;" edge="1" parent="1" source="T8dOOQ4WASQxtWzJ8wLk-28" target="T8dOOQ4WASQxtWzJ8wLk-66">
          <mxGeometry width="50" height="50" relative="1" as="geometry">
            <mxPoint x="320.5" y="750" as="sourcePoint" />
            <mxPoint x="419.5" y="750" as="targetPoint" />
          </mxGeometry>
        </mxCell>
        <mxCell id="T8dOOQ4WASQxtWzJ8wLk-84" value="服务1" style="rounded=0;whiteSpace=wrap;html=1;dashed=1;dashPattern=12 12;" vertex="1" parent="1">
          <mxGeometry x="674" y="580" width="100" height="50" as="geometry" />
        </mxCell>
        <mxCell id="T8dOOQ4WASQxtWzJ8wLk-85" value="服务2" style="rounded=0;whiteSpace=wrap;html=1;dashed=1;dashPattern=12 12;" vertex="1" parent="1">
          <mxGeometry x="674" y="650" width="100" height="50" as="geometry" />
        </mxCell>
        <mxCell id="T8dOOQ4WASQxtWzJ8wLk-88" value="" style="endArrow=none;html=1;rounded=0;dashed=1;dashPattern=12 12;entryX=0.5;entryY=1;entryDx=0;entryDy=0;" edge="1" parent="1" target="T8dOOQ4WASQxtWzJ8wLk-28">
          <mxGeometry width="50" height="50" relative="1" as="geometry">
            <mxPoint x="280" y="740" as="sourcePoint" />
            <mxPoint x="280" y="790" as="targetPoint" />
          </mxGeometry>
        </mxCell>
        <mxCell id="T8dOOQ4WASQxtWzJ8wLk-89" value="" style="endArrow=none;html=1;rounded=0;dashed=1;dashPattern=12 12;entryX=0.5;entryY=1;entryDx=0;entryDy=0;" edge="1" parent="1">
          <mxGeometry width="50" height="50" relative="1" as="geometry">
            <mxPoint x="409.8" y="740" as="sourcePoint" />
            <mxPoint x="409.8" y="700" as="targetPoint" />
          </mxGeometry>
        </mxCell>
        <mxCell id="T8dOOQ4WASQxtWzJ8wLk-90" value="" style="endArrow=none;html=1;rounded=0;dashed=1;dashPattern=12 12;entryX=0.5;entryY=1;entryDx=0;entryDy=0;" edge="1" parent="1">
          <mxGeometry width="50" height="50" relative="1" as="geometry">
            <mxPoint x="549.8" y="740" as="sourcePoint" />
            <mxPoint x="549.8" y="700" as="targetPoint" />
          </mxGeometry>
        </mxCell>
        <mxCell id="T8dOOQ4WASQxtWzJ8wLk-92" value="RMI" style="text;html=1;align=center;verticalAlign=middle;whiteSpace=wrap;rounded=0;" vertex="1" parent="1">
          <mxGeometry x="230" y="710" width="60" height="30" as="geometry" />
        </mxCell>
        <mxCell id="T8dOOQ4WASQxtWzJ8wLk-96" value="RMI" style="text;html=1;align=center;verticalAlign=middle;whiteSpace=wrap;rounded=0;" vertex="1" parent="1">
          <mxGeometry x="360" y="710" width="60" height="30" as="geometry" />
        </mxCell>
        <mxCell id="T8dOOQ4WASQxtWzJ8wLk-97" value="RMI" style="text;html=1;align=center;verticalAlign=middle;whiteSpace=wrap;rounded=0;" vertex="1" parent="1">
          <mxGeometry x="498.75" y="710" width="60" height="30" as="geometry" />
        </mxCell>
        <mxCell id="T8dOOQ4WASQxtWzJ8wLk-99" value="服务反馈" style="text;html=1;align=center;verticalAlign=middle;whiteSpace=wrap;rounded=0;dashed=1;dashPattern=12 12;" vertex="1" parent="1">
          <mxGeometry x="605" y="580" width="60" height="30" as="geometry" />
        </mxCell>
        <mxCell id="T8dOOQ4WASQxtWzJ8wLk-100" value="" style="endArrow=none;html=1;rounded=0;exitX=1;exitY=0.5;exitDx=0;exitDy=0;entryX=0;entryY=0.824;entryDx=0;entryDy=0;entryPerimeter=0;dashed=1;dashPattern=12 12;" edge="1" parent="1">
          <mxGeometry width="50" height="50" relative="1" as="geometry">
            <mxPoint x="593" y="610" as="sourcePoint" />
            <mxPoint x="673" y="610" as="targetPoint" />
          </mxGeometry>
        </mxCell>
        <mxCell id="T8dOOQ4WASQxtWzJ8wLk-102" value="服务反馈" style="text;html=1;align=center;verticalAlign=middle;whiteSpace=wrap;rounded=0;dashed=1;dashPattern=12 12;" vertex="1" parent="1">
          <mxGeometry x="605" y="640" width="60" height="30" as="geometry" />
        </mxCell>
        <mxCell id="T8dOOQ4WASQxtWzJ8wLk-103" value="" style="endArrow=none;html=1;rounded=0;exitX=1;exitY=0.5;exitDx=0;exitDy=0;entryX=0;entryY=0.824;entryDx=0;entryDy=0;entryPerimeter=0;dashed=1;dashPattern=12 12;" edge="1" parent="1">
          <mxGeometry width="50" height="50" relative="1" as="geometry">
            <mxPoint x="593" y="674.83" as="sourcePoint" />
            <mxPoint x="673" y="674.83" as="targetPoint" />
          </mxGeometry>
        </mxCell>
        <mxCell id="T8dOOQ4WASQxtWzJ8wLk-46" value="调度控制器" style="text;html=1;align=center;verticalAlign=middle;whiteSpace=wrap;rounded=0;dashed=1;dashPattern=12 12;" vertex="1" parent="1">
          <mxGeometry x="385" y="369" width="80" height="30" as="geometry" />
        </mxCell>
        <mxCell id="T8dOOQ4WASQxtWzJ8wLk-48" value="网域评分筛选" style="rounded=0;whiteSpace=wrap;html=1;dashed=1;dashPattern=12 12;" vertex="1" parent="1">
          <mxGeometry x="378" y="401" width="80" height="40" as="geometry" />
        </mxCell>
        <mxCell id="T8dOOQ4WASQxtWzJ8wLk-110" value="UNI" style="text;html=1;align=center;verticalAlign=middle;whiteSpace=wrap;rounded=0;" vertex="1" parent="1">
          <mxGeometry x="150" y="674" width="60" height="30" as="geometry" />
        </mxCell>
        <mxCell id="T8dOOQ4WASQxtWzJ8wLk-111" value="UNI" style="text;html=1;align=center;verticalAlign=middle;whiteSpace=wrap;rounded=0;" vertex="1" parent="1">
          <mxGeometry x="150" y="610" width="60" height="30" as="geometry" />
        </mxCell>
        <mxCell id="T8dOOQ4WASQxtWzJ8wLk-112" value="骨干网交换机" style="rounded=0;whiteSpace=wrap;html=1;dashed=1;dashPattern=12 12;" vertex="1" parent="1">
          <mxGeometry x="360" y="580" width="100" height="50" as="geometry" />
        </mxCell>
        <mxCell id="T8dOOQ4WASQxtWzJ8wLk-113" value="" style="endArrow=none;html=1;rounded=0;dashed=1;dashPattern=12 12;exitX=0.597;exitY=-0.008;exitDx=0;exitDy=0;exitPerimeter=0;entryX=1;entryY=0;entryDx=0;entryDy=0;" edge="1" parent="1">
          <mxGeometry width="50" height="50" relative="1" as="geometry">
            <mxPoint x="417.71000000000004" y="579.04" as="sourcePoint" />
            <mxPoint x="418.01" y="500" as="targetPoint" />
          </mxGeometry>
        </mxCell>
        <mxCell id="T8dOOQ4WASQxtWzJ8wLk-114" value="" style="endArrow=none;html=1;rounded=0;exitX=1.001;exitY=0.804;exitDx=0;exitDy=0;entryX=-0.005;entryY=0.527;entryDx=0;entryDy=0;entryPerimeter=0;dashed=1;dashPattern=12 12;exitPerimeter=0;" edge="1" parent="1">
          <mxGeometry width="50" height="50" relative="1" as="geometry">
            <mxPoint x="330" y="609.4300000000001" as="sourcePoint" />
            <mxPoint x="360" y="609.4300000000001" as="targetPoint" />
          </mxGeometry>
        </mxCell>
        <mxCell id="T8dOOQ4WASQxtWzJ8wLk-115" value="" style="endArrow=none;html=1;rounded=0;exitX=1.001;exitY=0.804;exitDx=0;exitDy=0;entryX=-0.005;entryY=0.527;entryDx=0;entryDy=0;entryPerimeter=0;dashed=1;dashPattern=12 12;exitPerimeter=0;" edge="1" parent="1">
          <mxGeometry width="50" height="50" relative="1" as="geometry">
            <mxPoint x="460" y="610" as="sourcePoint" />
            <mxPoint x="490" y="610" as="targetPoint" />
          </mxGeometry>
        </mxCell>
        <mxCell id="T8dOOQ4WASQxtWzJ8wLk-116" value="" style="group" vertex="1" connectable="0" parent="1">
          <mxGeometry x="493" y="581" width="100" height="120" as="geometry" />
        </mxCell>
        <mxCell id="T8dOOQ4WASQxtWzJ8wLk-65" value="" style="rounded=0;whiteSpace=wrap;html=1;dashed=1;dashPattern=12 12;" vertex="1" parent="T8dOOQ4WASQxtWzJ8wLk-116">
          <mxGeometry width="100" height="120" as="geometry" />
        </mxCell>
        <mxCell id="T8dOOQ4WASQxtWzJ8wLk-79" value="边缘网关" style="text;html=1;align=center;verticalAlign=middle;whiteSpace=wrap;rounded=0;" vertex="1" parent="T8dOOQ4WASQxtWzJ8wLk-116">
          <mxGeometry x="20" width="60" height="30" as="geometry" />
        </mxCell>
        <mxCell id="T8dOOQ4WASQxtWzJ8wLk-80" value="模态迁移" style="rounded=0;whiteSpace=wrap;html=1;dashed=1;dashPattern=12 12;" vertex="1" parent="T8dOOQ4WASQxtWzJ8wLk-116">
          <mxGeometry x="7.5" y="40" width="85" height="30" as="geometry" />
        </mxCell>
        <mxCell id="T8dOOQ4WASQxtWzJ8wLk-81" value="状态同步" style="rounded=0;whiteSpace=wrap;html=1;dashed=1;dashPattern=12 12;" vertex="1" parent="T8dOOQ4WASQxtWzJ8wLk-116">
          <mxGeometry x="7.5" y="80" width="85" height="30" as="geometry" />
        </mxCell>
        <mxCell id="T8dOOQ4WASQxtWzJ8wLk-118" value="" style="endArrow=none;html=1;rounded=0;exitX=1.001;exitY=0.804;exitDx=0;exitDy=0;entryX=-0.005;entryY=0.527;entryDx=0;entryDy=0;entryPerimeter=0;dashed=1;dashPattern=12 12;exitPerimeter=0;" edge="1" parent="1">
          <mxGeometry width="50" height="50" relative="1" as="geometry">
            <mxPoint x="463" y="674.71" as="sourcePoint" />
            <mxPoint x="493" y="674.71" as="targetPoint" />
          </mxGeometry>
        </mxCell>
        <mxCell id="T8dOOQ4WASQxtWzJ8wLk-119" value="策略下发" style="text;html=1;align=center;verticalAlign=middle;whiteSpace=wrap;rounded=0;dashed=1;dashPattern=12 12;" vertex="1" parent="1">
          <mxGeometry x="538" y="530" width="90" height="30" as="geometry" />
        </mxCell>
        <mxCell id="T8dOOQ4WASQxtWzJ8wLk-120" value="UNI" style="text;html=1;align=center;verticalAlign=middle;whiteSpace=wrap;rounded=0;" vertex="1" parent="1">
          <mxGeometry x="603" y="610" width="60" height="30" as="geometry" />
        </mxCell>
        <mxCell id="T8dOOQ4WASQxtWzJ8wLk-121" value="UNI" style="text;html=1;align=center;verticalAlign=middle;whiteSpace=wrap;rounded=0;" vertex="1" parent="1">
          <mxGeometry x="605" y="677" width="60" height="30" as="geometry" />
        </mxCell>
        <mxCell id="T8dOOQ4WASQxtWzJ8wLk-122" value="NNI" style="text;html=1;align=center;verticalAlign=middle;whiteSpace=wrap;rounded=0;" vertex="1" parent="1">
          <mxGeometry x="314" y="674" width="60" height="30" as="geometry" />
        </mxCell>
        <mxCell id="T8dOOQ4WASQxtWzJ8wLk-123" value="NNI" style="text;html=1;align=center;verticalAlign=middle;whiteSpace=wrap;rounded=0;" vertex="1" parent="1">
          <mxGeometry x="314" y="610" width="60" height="30" as="geometry" />
        </mxCell>
        <mxCell id="T8dOOQ4WASQxtWzJ8wLk-124" value="NNI" style="text;html=1;align=center;verticalAlign=middle;whiteSpace=wrap;rounded=0;" vertex="1" parent="1">
          <mxGeometry x="446" y="674" width="60" height="30" as="geometry" />
        </mxCell>
        <mxCell id="T8dOOQ4WASQxtWzJ8wLk-125" value="NNI" style="text;html=1;align=center;verticalAlign=middle;whiteSpace=wrap;rounded=0;" vertex="1" parent="1">
          <mxGeometry x="449" y="610" width="60" height="30" as="geometry" />
        </mxCell>
      </root>
    </mxGraphModel>
  </diagram>
</mxfile>
